<?xml version="1.0" standalone="no"?>
<!DOCTYPE svg PUBLIC "-//W3C//DTD SVG 20010904//EN"
 "http://www.w3.org/TR/2001/REC-SVG-20010904/DTD/svg10.dtd">
<svg version="1.0" xmlns="http://www.w3.org/2000/svg"
 width="2001.000000pt" height="2000.000000pt" viewBox="0 0 2001.000000 2000.000000"
 preserveAspectRatio="xMidYMid meet">

<g transform="translate(0.000000,2000.000000) scale(0.100000,-0.100000)"
fill="#000000" stroke="none">
<path d="M9412 19460 c-62 -5 -137 -14 -167 -19 -30 -6 -107 -13 -172 -16 -65
-4 -161 -15 -213 -25 -52 -10 -137 -21 -188 -24 -50 -3 -108 -12 -127 -21 -20
-8 -70 -17 -113 -20 -42 -4 -106 -15 -142 -25 -36 -10 -93 -20 -128 -24 -34
-3 -75 -12 -90 -20 -15 -8 -63 -19 -105 -25 -43 -6 -91 -18 -107 -26 -16 -8
-46 -15 -67 -15 -21 -1 -56 -8 -78 -16 -22 -9 -66 -22 -98 -29 -32 -7 -76 -21
-98 -29 -22 -9 -49 -16 -62 -16 -12 -1 -40 -8 -62 -16 -22 -9 -66 -21 -97 -29
-32 -7 -64 -17 -70 -23 -7 -5 -38 -17 -68 -25 -55 -15 -112 -34 -205 -67 -27
-10 -66 -23 -85 -30 -111 -39 -138 -49 -165 -64 -16 -9 -37 -16 -45 -16 -8 0
-29 -9 -46 -19 -17 -10 -46 -22 -64 -26 -18 -4 -47 -16 -64 -26 -17 -10 -39
-19 -48 -19 -9 0 -38 -11 -64 -25 -26 -14 -53 -25 -59 -25 -7 0 -18 -6 -24
-14 -7 -8 -24 -17 -39 -21 -15 -3 -52 -18 -82 -32 -30 -14 -75 -35 -100 -46
-25 -11 -52 -24 -60 -28 -8 -4 -96 -49 -195 -100 -197 -100 -230 -118 -290
-154 -22 -13 -58 -34 -80 -45 -22 -11 -56 -31 -76 -43 -20 -12 -70 -41 -112
-65 -41 -23 -80 -49 -87 -57 -7 -8 -17 -15 -22 -15 -5 0 -21 -8 -36 -18 -15
-11 -45 -30 -67 -44 -57 -37 -265 -174 -295 -195 -215 -151 -293 -209 -493
-367 -146 -115 -149 -118 -237 -195 -41 -37 -118 -103 -170 -146 -123 -104
-630 -610 -745 -745 -49 -58 -126 -146 -170 -196 -44 -50 -123 -146 -175 -213
-52 -67 -122 -157 -155 -199 -34 -42 -79 -103 -100 -136 -42 -62 -62 -90 -120
-171 -29 -40 -109 -161 -170 -257 -5 -8 -27 -41 -47 -72 -21 -31 -38 -60 -38
-65 0 -5 -7 -15 -17 -22 -9 -8 -22 -27 -30 -44 -8 -16 -36 -66 -63 -110 -27
-44 -58 -98 -70 -120 -11 -22 -31 -58 -45 -80 -27 -45 -101 -185 -122 -230 -8
-16 -18 -37 -23 -45 -27 -45 -130 -255 -130 -266 0 -6 -6 -17 -14 -23 -8 -7
-17 -24 -21 -39 -3 -14 -17 -49 -31 -78 -13 -28 -24 -56 -24 -61 0 -6 -6 -16
-14 -22 -8 -7 -18 -27 -21 -44 -4 -18 -13 -39 -20 -47 -7 -8 -18 -33 -24 -55
-6 -22 -17 -49 -24 -60 -8 -11 -18 -34 -21 -52 -4 -17 -16 -48 -27 -69 -10
-21 -19 -45 -19 -52 0 -8 -8 -31 -19 -51 -29 -57 -62 -143 -70 -181 -4 -19
-15 -48 -23 -65 -8 -16 -18 -46 -22 -66 -3 -19 -15 -53 -26 -74 -11 -22 -20
-51 -20 -65 0 -14 -7 -36 -17 -49 -9 -13 -22 -49 -29 -80 -7 -31 -19 -76 -27
-101 -8 -25 -20 -64 -26 -87 -6 -24 -16 -62 -22 -85 -6 -24 -18 -63 -26 -88
-8 -25 -20 -72 -25 -105 -6 -33 -19 -84 -29 -113 -11 -29 -19 -66 -19 -81 0
-16 -9 -58 -20 -93 -11 -34 -23 -92 -26 -128 -4 -36 -13 -81 -21 -100 -8 -19
-18 -78 -23 -130 -4 -52 -15 -111 -24 -131 -8 -19 -18 -82 -21 -140 -4 -57
-13 -128 -22 -158 -8 -30 -19 -120 -23 -200 -5 -80 -17 -193 -27 -251 -15 -92
-17 -184 -17 -760 0 -579 2 -667 17 -760 10 -58 22 -168 27 -245 4 -78 15
-168 23 -200 8 -33 18 -107 22 -164 3 -58 13 -121 21 -140 9 -20 20 -79 25
-132 5 -54 15 -112 23 -130 7 -19 16 -65 20 -103 4 -38 13 -84 21 -104 9 -19
18 -60 21 -91 4 -31 15 -76 24 -101 9 -25 20 -71 24 -103 3 -32 13 -71 20 -86
8 -14 19 -52 25 -83 5 -32 17 -70 24 -85 8 -16 17 -50 21 -77 3 -27 12 -59 20
-71 7 -11 17 -41 21 -65 4 -25 16 -62 26 -82 11 -21 19 -48 19 -60 0 -13 9
-39 19 -59 11 -20 23 -54 26 -75 4 -22 16 -54 26 -72 10 -18 19 -43 19 -55 0
-13 9 -40 19 -61 11 -21 23 -52 27 -69 3 -17 15 -44 25 -61 10 -17 19 -38 19
-46 0 -8 11 -37 25 -65 13 -27 25 -56 25 -62 0 -12 19 -59 61 -148 10 -22 21
-52 25 -67 3 -15 12 -32 20 -39 8 -6 14 -16 14 -23 0 -6 11 -33 24 -61 14 -27
36 -77 51 -110 26 -60 122 -253 144 -290 6 -11 16 -31 21 -45 6 -14 30 -61 55
-105 25 -44 54 -98 66 -120 59 -112 185 -325 284 -477 25 -39 35 -55 59 -93
37 -58 128 -191 181 -265 29 -41 75 -106 102 -144 26 -38 78 -108 116 -155 37
-47 78 -99 90 -115 73 -94 209 -260 222 -271 6 -5 38 -41 70 -80 193 -229 577
-619 808 -821 67 -59 138 -120 157 -138 135 -119 433 -356 449 -356 5 0 11 -6
14 -13 2 -7 42 -38 88 -70 46 -32 118 -83 159 -112 121 -87 298 -205 308 -205
5 0 15 -7 23 -16 7 -8 29 -24 48 -35 20 -11 48 -27 62 -37 68 -45 55 -37 387
-228 41 -24 280 -149 327 -171 17 -8 37 -18 45 -23 20 -13 153 -77 210 -102
25 -11 70 -31 100 -45 91 -42 137 -63 185 -83 25 -11 64 -29 88 -40 23 -10 56
-22 72 -26 17 -4 44 -16 60 -26 17 -10 39 -18 50 -18 11 0 34 -9 51 -19 17
-10 46 -22 64 -26 18 -4 47 -16 64 -26 17 -10 42 -19 56 -19 14 0 41 -8 60
-19 19 -10 53 -21 75 -25 22 -4 49 -14 61 -21 12 -7 39 -17 60 -21 21 -3 53
-14 69 -22 17 -8 55 -21 85 -28 54 -12 94 -24 215 -64 33 -11 71 -20 85 -20
14 0 44 -9 67 -20 24 -10 71 -22 105 -26 35 -4 81 -15 103 -25 22 -10 57 -19
77 -19 21 0 64 -9 97 -20 32 -12 92 -25 132 -29 41 -5 87 -14 103 -20 15 -6
70 -16 120 -21 51 -5 112 -16 136 -25 24 -8 91 -18 149 -22 58 -3 126 -12 151
-20 25 -7 113 -18 195 -23 83 -5 195 -17 250 -26 209 -34 1396 -30 1551 6 22
5 112 14 200 19 87 6 179 17 204 24 25 8 93 17 152 20 58 4 128 14 154 23 26
9 86 20 133 24 47 5 100 14 116 20 17 7 63 16 104 21 40 4 100 17 132 29 33
11 75 20 94 20 20 0 52 7 73 16 20 9 71 22 112 29 41 7 95 20 120 28 44 15 68
22 195 54 33 8 71 21 85 28 14 7 45 16 70 20 25 4 61 15 80 25 19 9 53 20 74
24 21 4 48 14 60 21 12 7 39 17 61 21 22 4 56 15 75 25 19 11 44 19 55 19 12
0 38 9 59 19 21 11 52 23 69 27 17 3 44 15 61 25 17 10 40 19 51 19 11 0 34 9
50 20 17 11 36 20 44 20 16 0 117 42 264 108 63 29 146 67 197 90 61 27 192
90 210 102 8 5 29 15 45 23 38 17 266 137 322 168 23 13 96 56 163 94 66 39
134 77 150 86 16 9 37 22 46 30 18 15 32 24 91 56 22 12 45 29 52 37 8 9 17
16 22 16 10 0 168 103 254 165 28 19 66 47 85 60 127 90 212 153 330 245 157
122 311 247 325 265 6 7 40 37 75 66 253 209 684 640 920 919 30 36 60 70 66
75 38 34 341 419 426 539 29 42 64 91 78 110 62 84 150 213 235 346 26 41 56
87 66 102 11 15 19 31 19 36 0 5 7 15 16 23 9 7 23 27 32 45 14 28 100 178
178 312 67 114 314 604 314 621 0 5 11 31 25 57 14 26 25 53 25 59 0 7 6 18
14 24 8 7 18 27 22 44 3 18 15 43 25 56 11 13 19 31 19 40 0 9 9 34 19 55 11
21 23 52 26 69 4 18 16 46 26 63 10 17 19 40 19 50 0 11 8 33 18 49 10 17 22
44 26 60 4 17 15 48 25 70 22 48 47 122 65 190 7 28 21 64 30 80 9 17 16 40
16 53 0 12 9 40 20 61 11 22 23 59 26 83 4 23 13 52 20 63 7 11 16 40 19 65 4
25 15 65 25 90 10 25 22 68 26 95 4 28 13 59 21 71 7 11 17 52 22 90 5 38 16
85 24 104 8 19 18 60 21 90 4 30 16 80 27 112 10 32 19 77 19 100 1 24 7 61
15 83 9 22 20 84 25 137 6 53 17 112 25 131 8 18 17 80 20 138 4 57 13 129 21
159 8 30 19 126 24 212 5 86 14 177 20 203 20 91 30 338 30 795 0 453 -10 704
-29 793 -6 24 -15 117 -21 208 -5 90 -16 184 -23 209 -8 25 -17 93 -21 152 -4
59 -13 125 -21 147 -7 22 -19 83 -25 136 -5 54 -15 106 -21 116 -5 11 -14 57
-19 103 -6 46 -16 99 -24 118 -8 19 -18 59 -22 89 -4 30 -15 76 -25 102 -11
26 -19 64 -19 85 -1 20 -8 55 -16 77 -9 22 -22 67 -29 100 -7 33 -20 77 -29
97 -9 21 -16 48 -16 60 -1 13 -8 41 -16 63 -9 22 -21 65 -28 96 -7 31 -20 67
-29 80 -10 13 -17 34 -17 46 0 12 -11 51 -24 85 -36 96 -47 128 -63 188 -9 30
-22 64 -29 75 -8 11 -14 26 -14 35 0 8 -11 38 -25 65 -13 28 -25 57 -25 65 0
8 -9 30 -20 48 -11 18 -20 40 -20 50 0 9 -12 40 -25 67 -14 28 -25 57 -25 66
0 9 -8 27 -19 40 -10 13 -22 38 -25 56 -4 17 -13 37 -21 43 -7 6 -16 23 -20
38 -3 15 -18 52 -32 82 -37 79 -253 511 -285 567 -14 26 -34 62 -43 78 -19 35
-53 95 -113 197 -68 116 -98 164 -183 298 -30 47 -68 107 -85 133 -16 27 -45
69 -64 95 -20 26 -46 65 -59 87 -46 77 -77 121 -166 231 -49 62 -135 169 -190
240 -95 121 -146 184 -219 264 -17 19 -67 78 -111 130 -104 124 -610 630 -746
747 -59 50 -116 99 -127 109 -11 11 -31 28 -44 39 -13 11 -49 41 -79 67 -57
49 -205 165 -358 283 -51 39 -120 93 -154 121 -34 28 -82 61 -106 74 -24 12
-65 38 -92 58 -43 34 -107 75 -193 127 -18 11 -59 37 -90 58 -31 20 -60 37
-65 37 -5 0 -14 7 -22 16 -7 8 -29 24 -48 35 -96 52 -170 95 -182 105 -8 7
-30 19 -49 28 -19 9 -53 28 -75 41 -72 43 -126 72 -375 195 -135 66 -261 129
-280 139 -19 10 -49 22 -67 25 -17 4 -37 14 -44 22 -6 8 -17 14 -24 14 -6 0
-33 11 -59 25 -26 14 -54 25 -63 25 -9 0 -30 9 -47 19 -17 10 -46 22 -65 26
-19 4 -48 16 -65 26 -17 10 -38 19 -46 19 -8 0 -37 12 -65 25 -27 14 -57 25
-65 25 -9 0 -24 6 -35 14 -11 7 -45 21 -75 29 -71 20 -143 44 -202 68 -26 10
-55 19 -65 19 -10 0 -31 7 -48 16 -16 9 -55 22 -85 30 -30 7 -73 19 -95 28
-22 8 -50 15 -63 16 -13 0 -44 8 -70 19 -26 10 -69 23 -97 29 -27 5 -68 17
-90 26 -22 8 -57 15 -78 16 -21 0 -51 7 -67 15 -16 8 -64 20 -107 26 -42 6
-90 17 -105 25 -15 8 -56 17 -90 20 -35 4 -92 14 -128 24 -36 10 -100 21 -142
25 -43 3 -93 12 -112 20 -19 8 -90 19 -158 24 -68 5 -136 15 -153 21 -16 6
-95 16 -175 21 -80 5 -192 17 -250 26 -85 12 -219 16 -700 18 -327 2 -646 -1
-708 -5z m1198 -40 c36 -5 135 -12 220 -15 85 -4 193 -13 240 -22 47 -8 144
-21 215 -28 139 -15 276 -36 420 -66 50 -10 115 -21 145 -24 30 -4 84 -15 119
-26 35 -10 76 -19 91 -19 15 0 47 -7 71 -16 24 -8 71 -20 104 -25 33 -5 80
-16 105 -24 25 -8 70 -21 100 -29 117 -31 146 -39 190 -53 25 -8 73 -21 106
-28 34 -8 77 -20 95 -28 38 -16 112 -41 179 -62 25 -8 83 -28 130 -45 47 -17
101 -35 120 -41 19 -6 49 -16 65 -24 32 -15 213 -87 280 -112 38 -14 84 -33
170 -73 48 -22 145 -66 200 -90 97 -44 477 -238 560 -286 22 -13 56 -32 75
-42 54 -29 231 -132 270 -156 19 -13 69 -44 110 -71 41 -27 107 -69 145 -93
87 -56 103 -67 187 -125 38 -26 70 -47 73 -47 8 0 155 -111 305 -230 52 -42
129 -101 170 -132 41 -32 89 -70 105 -85 17 -15 62 -55 100 -88 234 -201 532
-484 717 -680 159 -169 423 -473 509 -585 40 -52 98 -126 128 -165 31 -38 68
-86 82 -105 15 -19 38 -46 51 -60 14 -14 38 -47 53 -75 16 -27 49 -79 74 -115
58 -84 69 -101 125 -187 25 -40 67 -106 92 -145 26 -40 55 -84 64 -98 9 -14
55 -92 101 -173 46 -82 94 -165 105 -185 45 -78 264 -507 264 -516 0 -3 21
-50 46 -103 44 -95 58 -126 102 -223 12 -25 28 -65 37 -90 28 -73 51 -133 69
-172 9 -21 16 -43 16 -49 0 -6 9 -28 19 -48 11 -20 26 -56 34 -81 14 -44 22
-65 57 -165 33 -93 52 -150 67 -205 8 -30 19 -60 24 -66 5 -6 15 -39 23 -75 9
-35 26 -102 40 -149 14 -47 30 -105 36 -130 7 -25 21 -72 31 -105 10 -33 23
-90 29 -126 5 -37 16 -82 24 -100 7 -19 16 -59 20 -90 3 -31 12 -75 20 -97 8
-23 18 -70 21 -104 4 -35 15 -97 25 -138 10 -41 21 -104 25 -140 3 -36 13 -92
20 -125 8 -33 18 -116 24 -185 6 -69 15 -141 21 -160 6 -19 15 -116 20 -215 6
-99 15 -225 22 -280 18 -136 17 -965 0 -1090 -7 -49 -16 -173 -22 -275 -5
-102 -14 -201 -20 -220 -6 -19 -15 -89 -20 -155 -6 -66 -19 -164 -30 -217 -11
-53 -20 -111 -20 -128 0 -18 -9 -66 -19 -108 -10 -43 -22 -105 -26 -140 -3
-34 -12 -81 -20 -103 -8 -22 -17 -63 -20 -92 -4 -29 -13 -70 -21 -92 -7 -22
-20 -74 -28 -115 -18 -93 -35 -156 -111 -410 -14 -47 -25 -93 -25 -103 0 -10
-6 -30 -14 -45 -8 -15 -21 -52 -30 -82 -17 -62 -91 -279 -131 -385 -15 -38
-33 -88 -41 -110 -8 -22 -21 -53 -28 -70 -14 -30 -35 -84 -63 -160 -15 -41
-22 -59 -92 -208 -23 -48 -41 -89 -41 -92 0 -5 -98 -215 -110 -235 -4 -8 -34
-67 -66 -130 -45 -90 -237 -436 -307 -555 -101 -172 -403 -624 -474 -710 -5
-5 -26 -35 -48 -65 -22 -30 -76 -100 -120 -156 -44 -55 -91 -116 -105 -134
-14 -18 -32 -40 -41 -49 -8 -9 -51 -59 -94 -111 -285 -343 -719 -777 -1075
-1076 -52 -43 -102 -86 -111 -95 -9 -9 -43 -36 -75 -60 -33 -24 -93 -70 -134
-104 -75 -61 -168 -132 -225 -171 -41 -28 -144 -100 -219 -152 -115 -81 -329
-220 -419 -273 -32 -19 -73 -43 -92 -54 -154 -90 -373 -211 -485 -268 -74 -37
-142 -72 -150 -77 -8 -5 -44 -22 -80 -39 -72 -32 -167 -76 -263 -120 -34 -16
-91 -41 -127 -56 -36 -15 -84 -35 -108 -46 -23 -10 -48 -19 -54 -19 -6 0 -30
-9 -52 -19 -40 -19 -78 -34 -182 -71 -28 -10 -65 -25 -82 -34 -17 -9 -40 -16
-50 -16 -17 0 -51 -12 -137 -50 -19 -8 -91 -30 -285 -86 -294 -85 -404 -114
-488 -130 -40 -7 -81 -18 -91 -23 -10 -6 -49 -15 -87 -21 -38 -6 -91 -17 -119
-25 -27 -8 -93 -21 -145 -29 -52 -9 -124 -21 -160 -27 -36 -5 -110 -19 -165
-29 -55 -11 -143 -22 -195 -26 -52 -3 -126 -13 -165 -21 -38 -8 -151 -19 -250
-23 -99 -5 -220 -15 -270 -22 -122 -17 -934 -17 -1065 0 -52 7 -176 17 -275
21 -99 5 -211 16 -250 24 -38 8 -115 18 -170 22 -55 4 -139 15 -187 26 -48 10
-103 19 -121 19 -18 0 -67 9 -108 19 -41 10 -103 22 -139 26 -36 3 -94 15
-129 26 -35 10 -76 19 -92 19 -15 0 -50 7 -76 16 -26 10 -77 22 -113 29 -81
15 -256 62 -281 75 -10 6 -26 10 -36 10 -19 0 -123 30 -283 82 -52 17 -115 37
-140 45 -25 8 -65 22 -90 31 -25 9 -63 22 -85 28 -22 7 -71 24 -110 39 -38 15
-88 34 -110 42 -22 8 -58 23 -81 34 -22 10 -46 19 -53 19 -7 0 -25 7 -39 15
-15 8 -58 26 -97 41 -38 14 -110 46 -160 69 -49 23 -110 51 -135 62 -113 51
-186 85 -200 93 -8 5 -67 35 -130 67 -63 32 -175 91 -248 133 -73 41 -152 85
-175 98 -23 12 -59 33 -79 45 -21 12 -63 37 -95 56 -100 59 -399 256 -523 345
-25 18 -67 48 -95 67 -102 70 -369 277 -455 351 -8 7 -57 49 -110 93 -278 233
-631 574 -874 845 -32 36 -73 81 -90 100 -17 19 -67 78 -111 130 -44 52 -84
100 -90 106 -5 7 -20 25 -32 40 -12 16 -62 79 -111 139 -75 93 -215 283 -287
389 -11 16 -29 41 -40 56 -63 87 -265 398 -265 409 0 4 -9 16 -20 26 -11 10
-20 23 -20 29 0 9 -19 40 -70 116 -9 14 -33 54 -52 90 -19 36 -50 92 -68 125
-51 94 -260 510 -309 615 -89 193 -131 290 -131 304 0 6 -9 28 -20 49 -11 20
-20 42 -20 49 0 6 -9 30 -19 52 -11 23 -26 59 -34 81 -8 22 -27 72 -42 110
-15 39 -32 88 -39 110 -6 22 -20 63 -30 90 -9 28 -26 73 -36 100 -20 56 -57
176 -95 310 -14 50 -34 119 -45 155 -34 116 -60 224 -70 280 -5 30 -16 75 -24
99 -9 24 -16 53 -16 65 0 12 -7 49 -16 81 -9 33 -22 96 -29 140 -6 44 -19 118
-28 165 -36 185 -57 319 -63 400 -3 47 -12 119 -21 160 -8 41 -18 156 -23 255
-5 99 -15 221 -22 270 -17 124 -17 946 0 1070 7 50 17 173 22 275 5 102 14
203 20 225 5 22 17 111 25 197 8 87 19 168 25 182 5 13 12 53 15 88 4 34 14
92 22 128 8 36 20 103 28 150 7 47 20 114 28 150 24 100 37 159 53 235 8 39
23 99 33 135 10 36 24 85 30 110 7 25 24 83 37 130 14 47 32 114 40 150 8 35
19 69 24 75 4 5 15 35 23 65 19 66 44 142 65 190 8 19 20 55 27 80 7 25 25 77
40 115 15 39 35 95 46 125 11 30 24 59 29 64 6 6 10 16 10 24 0 8 11 41 25 73
14 33 37 87 51 122 15 34 44 99 65 145 22 45 39 85 39 88 0 18 238 493 311
620 13 23 55 95 92 160 70 122 76 134 113 194 60 101 276 425 355 535 47 66
76 108 116 165 10 14 43 57 74 95 30 39 81 104 113 145 149 196 459 543 706
790 244 244 594 557 790 706 41 32 107 83 145 114 63 51 109 85 225 165 19 13
58 41 85 60 51 37 255 173 380 253 39 25 81 53 95 62 14 9 92 55 173 101 82
46 165 94 185 105 83 48 464 242 557 284 22 9 67 30 100 45 33 15 78 35 100
45 22 10 60 27 85 38 25 12 65 28 90 37 106 40 136 51 155 62 11 6 38 16 60
23 22 7 51 19 65 26 14 7 41 18 60 23 19 6 73 24 120 41 47 17 101 36 120 41
19 6 58 18 85 28 98 36 151 53 205 66 30 8 75 20 100 28 44 14 73 22 190 53
30 8 75 21 100 29 25 8 70 19 100 24 54 9 121 24 270 62 41 11 102 22 135 25
33 3 93 15 134 25 41 10 89 19 105 19 17 0 72 9 121 19 50 10 128 22 175 25
47 4 144 16 215 26 72 11 218 25 325 31 107 7 242 15 300 20 138 9 887 1 970
-11z"/>
<path d="M9460 18624 c-19 -2 -66 -8 -105 -14 -38 -6 -142 -15 -230 -20 -88
-6 -178 -15 -200 -20 -22 -6 -89 -15 -150 -20 -60 -6 -132 -17 -160 -24 -27
-8 -79 -17 -115 -20 -36 -4 -79 -11 -97 -17 -17 -5 -69 -16 -115 -23 -82 -13
-177 -34 -273 -61 -27 -8 -68 -17 -90 -20 -22 -4 -71 -15 -110 -26 -38 -12
-101 -29 -140 -40 -106 -30 -205 -59 -255 -75 -25 -8 -65 -21 -90 -29 -86 -26
-145 -46 -175 -60 -16 -8 -43 -17 -60 -20 -16 -4 -50 -15 -75 -24 -25 -10 -70
-29 -100 -41 -30 -12 -74 -31 -98 -41 -23 -10 -48 -19 -55 -19 -6 -1 -30 -9
-52 -20 -22 -11 -44 -19 -48 -20 -5 0 -33 -11 -63 -25 -103 -48 -159 -73 -253
-115 -158 -71 -495 -246 -620 -321 -34 -22 -65 -39 -67 -39 -23 0 -474 -292
-698 -451 -106 -76 -542 -419 -591 -466 -11 -10 -58 -52 -105 -92 -201 -173
-555 -528 -720 -721 -30 -35 -76 -87 -101 -114 -65 -72 -355 -436 -418 -526
-29 -41 -71 -100 -92 -130 -38 -52 -166 -244 -214 -320 -12 -19 -40 -62 -61
-95 -21 -33 -44 -69 -50 -80 -6 -11 -53 -92 -104 -180 -51 -88 -135 -243 -187
-343 -52 -101 -98 -191 -103 -200 -5 -10 -18 -38 -29 -64 -63 -145 -110 -248
-132 -290 -10 -20 -19 -43 -19 -50 0 -7 -9 -30 -20 -51 -11 -20 -20 -43 -20
-50 0 -7 -9 -29 -20 -50 -11 -20 -20 -42 -20 -49 0 -6 -9 -30 -19 -52 -23 -47
-47 -111 -66 -176 -18 -59 -44 -134 -65 -190 -26 -69 -50 -140 -65 -195 -8
-27 -25 -90 -39 -140 -57 -200 -69 -243 -81 -300 -14 -64 -39 -175 -56 -240
-5 -22 -14 -65 -20 -95 -6 -30 -19 -94 -30 -141 -10 -47 -19 -102 -19 -120 0
-19 -7 -59 -15 -89 -8 -30 -19 -102 -25 -160 -6 -58 -17 -141 -25 -185 -7 -44
-17 -129 -20 -190 -4 -60 -13 -166 -22 -235 -21 -180 -22 -1081 0 -1260 9 -69
18 -174 22 -235 3 -60 13 -146 20 -190 8 -44 19 -127 25 -185 6 -58 17 -130
25 -160 8 -30 15 -67 15 -83 0 -15 9 -70 19 -120 11 -51 24 -117 30 -147 6
-30 15 -73 21 -95 27 -111 42 -177 54 -242 8 -40 18 -77 22 -84 4 -7 13 -37
20 -68 7 -31 19 -74 28 -96 8 -22 15 -50 16 -61 0 -12 7 -38 15 -59 9 -20 20
-55 25 -78 5 -23 23 -80 40 -127 17 -47 37 -105 44 -130 24 -80 116 -327 147
-396 11 -22 19 -46 19 -52 0 -7 9 -29 20 -49 11 -21 20 -44 20 -51 0 -7 9 -30
19 -50 31 -58 101 -211 101 -219 0 -20 296 -594 317 -615 7 -6 13 -16 13 -20
0 -5 24 -49 52 -98 29 -50 60 -102 68 -118 30 -54 297 -456 360 -542 22 -30
57 -80 77 -111 21 -30 52 -73 70 -95 17 -21 91 -113 164 -204 73 -91 147 -181
164 -200 18 -19 87 -96 153 -171 277 -311 670 -681 1037 -973 105 -83 201
-159 215 -168 33 -23 108 -76 195 -139 66 -46 227 -154 305 -204 19 -12 67
-42 105 -67 39 -25 77 -48 85 -52 8 -4 83 -46 165 -95 131 -78 610 -325 721
-373 94 -41 160 -70 175 -78 9 -5 81 -34 160 -65 79 -31 153 -60 164 -65 19
-9 47 -19 135 -50 19 -7 58 -20 85 -30 62 -22 136 -47 195 -65 82 -25 145 -46
175 -57 17 -6 55 -16 85 -23 30 -7 78 -19 105 -28 121 -38 191 -57 211 -57 11
0 45 -7 75 -16 30 -9 83 -23 119 -30 36 -7 83 -17 105 -23 49 -13 192 -39 305
-57 47 -7 99 -17 116 -22 17 -5 73 -13 125 -17 52 -4 125 -13 162 -21 37 -8
137 -18 221 -24 84 -5 186 -15 227 -22 105 -18 1143 -18 1248 0 41 7 143 17
227 22 84 6 184 16 221 24 37 8 110 17 161 21 51 3 107 11 125 16 17 6 73 16
122 24 116 18 249 43 300 56 22 6 73 17 113 25 40 7 93 20 118 29 25 8 55 15
67 15 21 0 101 22 222 61 33 10 69 19 80 19 11 1 38 8 60 16 22 9 58 20 80 25
22 5 56 16 75 24 19 8 54 19 78 25 35 9 41 14 32 25 -6 7 -27 16 -48 20 -81
15 -192 56 -202 75 -27 50 9 131 123 283 87 115 98 158 47 184 -113 56 -275
123 -298 123 -19 0 -33 -9 -49 -33 -29 -42 -88 -75 -111 -60 -9 5 -18 20 -20
32 -3 18 -8 20 -25 14 -12 -4 -38 -7 -57 -8 -49 0 -53 30 -9 66 l34 27 -30 7
c-46 10 -60 20 -60 46 0 20 13 30 71 59 l71 35 -5 37 c-5 37 -4 38 43 59 54
24 133 77 185 124 80 73 217 145 324 169 41 10 114 16 189 16 l121 0 109 -48
c106 -46 111 -49 162 -117 64 -86 120 -139 134 -131 6 4 11 24 11 45 0 33 -5
41 -37 62 -49 31 -57 77 -19 103 33 21 33 33 -3 99 -52 96 -101 241 -101 299
0 69 34 141 91 196 57 54 111 72 219 72 119 0 164 -23 205 -104 l30 -60 0
-231 0 -232 -29 -42 c-16 -23 -47 -54 -68 -69 -34 -24 -37 -30 -30 -57 4 -16
7 -70 7 -120 0 -81 -3 -97 -33 -160 -42 -89 -100 -149 -170 -175 -29 -11 -62
-20 -73 -20 -23 0 -159 -39 -174 -50 -5 -4 -41 -18 -80 -30 -105 -35 -113 -40
-135 -85 -17 -35 -20 -62 -20 -183 0 -157 0 -157 63 -128 18 8 64 26 102 41
39 14 89 35 113 45 23 11 47 20 53 20 11 0 208 82 240 99 8 5 47 21 85 36 61
25 303 146 329 165 6 5 40 24 76 43 37 20 88 49 115 66 27 16 96 57 154 91
139 80 134 78 215 129 39 24 86 54 105 66 78 50 239 158 305 204 87 63 162
116 195 139 14 9 112 86 217 170 509 405 965 859 1371 1365 81 101 155 194
164 208 10 13 44 60 76 104 31 44 65 91 74 105 10 14 38 54 63 90 42 59 100
146 160 240 12 19 39 62 61 95 21 33 46 72 54 87 8 16 39 68 68 118 28 49 52
93 52 97 0 3 6 14 14 22 25 28 259 486 326 636 49 111 73 162 91 197 10 20 19
43 19 50 0 7 9 30 20 51 11 20 20 42 20 47 0 6 7 27 16 48 10 20 25 57 34 82
10 25 28 70 40 100 12 30 28 75 36 100 7 25 27 83 44 130 17 47 35 102 41 124
5 21 16 50 23 65 8 14 17 46 21 71 4 25 13 56 20 70 7 14 16 45 20 70 4 25 13
56 20 70 7 14 16 45 20 69 4 24 13 59 21 76 7 18 18 57 23 86 11 64 34 167 61
266 11 40 20 87 20 105 0 18 9 67 20 108 11 41 20 90 20 109 0 18 9 70 19 115
11 44 22 119 26 165 4 47 13 117 20 155 7 39 16 118 20 176 3 58 13 166 22
240 23 196 24 1085 0 1280 -9 74 -19 182 -22 240 -4 58 -13 137 -20 177 -8 40
-17 112 -21 160 -3 48 -15 121 -25 162 -10 41 -19 91 -19 111 0 20 -9 70 -20
111 -11 41 -20 90 -20 110 0 20 -9 65 -20 99 -11 34 -20 72 -20 84 0 13 -7 47
-16 77 -9 30 -23 83 -30 119 -7 36 -22 97 -33 135 -41 140 -72 251 -86 300 -7
28 -20 68 -28 90 -29 81 -40 111 -53 155 -7 25 -27 83 -44 130 -17 47 -36 101
-42 120 -5 19 -17 44 -24 55 -8 11 -14 26 -14 34 0 8 -8 33 -19 55 -10 23 -33
79 -50 125 -18 46 -36 91 -41 100 -5 9 -18 39 -30 66 -50 115 -118 262 -145
315 -13 25 -57 110 -97 190 -74 145 -252 461 -313 555 -17 28 -47 75 -67 105
-62 97 -186 283 -223 335 -19 28 -43 61 -53 75 -9 14 -19 27 -22 30 -3 3 -20
28 -39 55 -39 56 -361 460 -410 515 -18 19 -58 64 -89 100 -118 134 -365 390
-499 516 -224 212 -318 293 -588 509 -263 210 -418 321 -720 517 -109 70 -302
188 -309 188 -2 0 -33 17 -67 39 -89 53 -176 100 -384 205 -159 80 -239 119
-390 186 -22 10 -66 30 -97 44 -31 14 -60 26 -63 26 -4 0 -21 7 -38 15 -18 8
-50 20 -72 28 -39 14 -157 61 -245 97 -44 18 -101 38 -190 65 -62 19 -136 45
-192 67 -26 10 -55 18 -65 18 -10 0 -45 9 -78 20 -33 11 -93 29 -132 40 -40
11 -103 29 -140 40 -38 11 -77 20 -88 20 -11 0 -51 9 -90 19 -119 33 -207 53
-293 67 -46 7 -98 18 -115 23 -18 6 -61 13 -97 17 -36 3 -87 12 -115 20 -27 7
-99 18 -160 24 -60 6 -128 15 -150 20 -22 5 -116 15 -210 21 -93 6 -190 15
-215 21 -43 10 -1099 21 -1180 12z m-1017 -909 c-1 -11 -16 -31 -33 -45 -149
-117 -266 -216 -344 -294 -291 -293 -531 -692 -701 -1166 -15 -41 -31 -84 -36
-95 -10 -26 -66 -211 -90 -300 -47 -172 -106 -457 -129 -620 -5 -38 -16 -119
-25 -180 -64 -445 -64 -1282 0 -1750 9 -66 20 -151 25 -190 5 -38 14 -97 20
-130 6 -33 18 -98 26 -145 33 -179 54 -278 84 -390 5 -19 14 -57 20 -85 7 -27
18 -70 25 -95 7 -25 18 -63 24 -85 22 -82 64 -213 93 -295 16 -47 38 -110 48
-140 25 -76 78 -211 140 -360 51 -123 61 -144 135 -305 58 -126 158 -321 219
-429 31 -54 56 -100 56 -102 0 -7 154 -260 240 -393 357 -556 885 -1181 1265
-1496 33 -28 65 -54 71 -60 56 -50 213 -172 369 -286 163 -119 460 -333 535
-384 19 -13 78 -56 130 -94 52 -39 106 -79 120 -88 14 -10 77 -58 140 -107
376 -293 651 -559 858 -832 131 -173 285 -449 342 -614 12 -36 27 -74 33 -85
6 -11 14 -33 18 -50 4 -16 19 -73 33 -125 58 -209 81 -402 81 -665 0 -469
-101 -771 -336 -1003 -195 -192 -448 -289 -779 -299 -142 -4 -178 -2 -255 15
-141 32 -158 37 -236 73 -302 136 -585 432 -762 799 -170 351 -207 609 -207
1455 -1 679 -21 949 -96 1285 -144 644 -449 1256 -817 1640 -250 260 -493 394
-802 439 -221 32 -462 -41 -660 -200 -204 -165 -413 -492 -515 -808 -10 -31
-22 -67 -28 -81 -47 -114 -128 -501 -153 -730 -27 -255 -27 -778 0 -1040 27
-264 90 -572 167 -820 41 -130 109 -318 144 -395 12 -27 29 -66 37 -85 55
-126 201 -402 301 -570 131 -218 374 -560 514 -722 13 -15 41 -48 63 -75 98
-119 458 -483 620 -628 195 -175 449 -379 610 -490 173 -121 409 -275 420
-275 1 0 32 -18 66 -40 35 -22 80 -48 99 -58 19 -10 71 -38 115 -62 44 -23
114 -60 155 -80 66 -33 118 -57 355 -164 28 -13 82 -36 120 -51 39 -16 82 -37
98 -48 31 -21 35 -52 9 -66 -52 -28 -1002 -21 -1237 9 -38 5 -113 14 -165 20
-52 6 -151 20 -220 30 -69 10 -147 22 -175 25 -27 4 -72 13 -99 21 -27 8 -66
14 -86 14 -20 0 -63 7 -95 16 -33 9 -87 22 -120 29 -124 26 -247 56 -345 84
-182 53 -220 63 -275 77 -33 9 -64 19 -70 24 -6 5 -29 13 -50 19 -22 5 -78 24
-125 41 -47 17 -101 35 -120 40 -19 5 -53 18 -75 30 -21 11 -45 20 -53 20 -8
0 -26 7 -40 15 -15 8 -46 22 -69 30 -109 39 -172 65 -318 135 -22 10 -67 31
-100 45 -68 31 -153 72 -175 85 -8 5 -28 16 -45 24 -75 37 -194 99 -230 121
-52 30 -92 53 -135 77 -19 11 -53 30 -75 43 -22 13 -53 32 -70 41 -66 37 -379
244 -475 315 -30 22 -66 47 -80 57 -76 51 -424 322 -445 347 -5 6 -62 56 -125
110 -230 198 -519 488 -710 710 -52 61 -100 115 -106 120 -32 30 -285 354
-372 477 -13 18 -51 72 -85 119 -34 48 -82 119 -107 159 -25 39 -69 108 -98
153 -52 79 -95 152 -155 261 -16 28 -36 62 -45 76 -22 35 -53 93 -139 260 -41
80 -78 152 -83 160 -8 15 -41 87 -79 172 -12 27 -30 68 -41 93 -11 25 -29 64
-40 88 -11 24 -20 49 -20 55 0 7 -9 29 -20 49 -11 21 -20 44 -20 51 0 7 -9 30
-19 50 -10 20 -24 53 -31 72 -7 19 -23 64 -37 100 -13 36 -30 85 -38 110 -22
72 -46 142 -60 180 -7 19 -25 76 -39 125 -15 50 -35 119 -46 155 -19 65 -48
179 -70 275 -6 28 -20 86 -30 130 -33 137 -66 311 -85 445 -7 52 -18 115 -24
140 -5 25 -13 83 -16 130 -4 47 -13 119 -20 161 -49 272 -49 1406 0 1679 7 41
16 116 20 165 3 50 12 117 20 150 7 33 16 89 20 125 4 36 13 90 21 120 7 30
18 90 24 133 5 43 14 86 19 95 4 9 11 35 15 57 19 116 76 339 151 583 14 46
25 89 25 95 0 7 7 25 15 40 8 15 17 45 21 65 4 20 13 48 20 62 7 14 18 41 23
60 15 52 50 151 67 187 7 17 14 36 14 43 0 7 7 24 15 38 8 15 31 69 50 120 20
51 39 101 44 110 12 26 46 101 71 157 38 85 72 158 101 215 80 158 154 301
180 345 16 28 34 59 39 70 6 11 22 38 35 60 14 22 30 51 37 65 12 24 56 98
103 170 161 253 159 250 342 500 498 680 1141 1309 1843 1799 155 109 445 294
530 339 36 19 72 39 80 46 16 12 28 19 118 68 78 43 450 229 504 252 72 31
172 77 200 92 14 8 32 14 40 14 7 0 36 11 63 25 28 13 57 25 65 25 9 0 24 6
35 14 11 7 36 18 55 24 19 6 67 23 105 37 97 36 202 73 255 89 25 8 59 19 75
25 30 10 146 45 280 82 39 11 90 26 115 34 25 8 73 18 107 24 34 5 70 14 81
20 10 5 43 13 73 17 30 4 70 13 89 20 50 19 85 14 83 -11z m2694 -1159 c263
-61 533 -300 687 -606 119 -237 168 -457 181 -820 13 -341 25 -590 35 -690 31
-315 53 -495 70 -580 5 -25 14 -70 19 -100 45 -240 149 -597 222 -758 11 -24
27 -62 36 -85 42 -108 192 -383 287 -525 278 -417 562 -691 951 -915 11 -6 36
-22 56 -34 19 -13 44 -23 56 -23 11 0 31 -9 45 -19 15 -12 73 -29 154 -45 71
-14 152 -31 179 -36 28 -6 165 -33 305 -60 140 -27 278 -54 305 -60 28 -6 187
-37 355 -70 342 -67 376 -74 475 -94 38 -8 73 -12 77 -8 4 4 9 982 10 2172 3
2220 3 2224 39 2246 30 18 475 -500 685 -796 44 -61 90 -127 104 -145 48 -65
85 -121 215 -325 48 -75 91 -146 103 -170 12 -25 18 -35 58 -100 30 -47 70
-122 141 -260 32 -63 73 -142 90 -175 17 -33 44 -87 58 -120 15 -33 35 -78 45
-100 10 -22 32 -69 48 -105 17 -36 47 -108 66 -160 20 -52 43 -107 51 -122 8
-14 15 -31 15 -38 0 -7 7 -26 14 -43 16 -35 49 -126 71 -197 7 -25 22 -67 31
-95 10 -27 25 -72 35 -100 9 -27 27 -84 38 -125 12 -41 30 -104 41 -140 42
-145 89 -334 101 -410 5 -30 14 -65 19 -78 6 -13 17 -69 25 -126 7 -56 18
-113 23 -126 5 -14 13 -56 17 -95 3 -38 13 -100 21 -137 7 -36 16 -104 19
-150 4 -46 13 -117 21 -158 46 -246 48 -1447 3 -1649 -6 -25 -14 -95 -20 -156
-5 -60 -16 -144 -23 -185 -8 -41 -18 -100 -21 -130 -4 -30 -11 -73 -17 -95 -6
-22 -16 -78 -23 -125 -13 -88 -33 -176 -66 -295 -10 -38 -19 -81 -19 -94 0
-14 -8 -52 -19 -85 -10 -34 -23 -79 -29 -101 -5 -22 -14 -53 -20 -70 -6 -16
-19 -61 -30 -100 -12 -38 -28 -92 -37 -120 -9 -27 -22 -70 -30 -95 -17 -58
-97 -279 -124 -347 -12 -29 -30 -77 -42 -105 -12 -29 -28 -71 -35 -93 -15 -42
-17 -46 -83 -187 -23 -48 -41 -90 -41 -94 0 -9 -140 -290 -213 -426 -116 -219
-229 -407 -397 -663 -19 -29 -66 -97 -105 -151 -38 -54 -77 -108 -85 -121 -15
-22 -139 -184 -182 -237 -13 -16 -52 -65 -88 -110 -35 -44 -71 -87 -80 -96 -8
-9 -42 -47 -75 -85 -97 -112 -164 -185 -241 -265 -39 -41 -93 -97 -119 -124
-114 -118 -165 -147 -195 -110 -17 20 -4 98 46 284 41 154 89 373 114 525 8
45 32 227 60 450 16 134 30 410 30 590 -1 264 -49 808 -90 1020 -6 28 -14 73
-19 100 -10 53 -37 194 -51 260 -13 58 -25 111 -45 185 -9 36 -20 81 -25 100
-21 91 -115 400 -155 510 -15 41 -29 84 -32 95 -2 11 -8 29 -13 40 -4 11 -19
49 -33 85 -62 161 -180 445 -228 550 -92 200 -298 600 -341 662 -10 14 -18 29
-18 33 0 5 -21 41 -77 131 -7 10 -35 56 -62 100 -269 438 -699 971 -1122 1393
-181 180 -392 381 -544 516 -49 44 -141 127 -205 185 -63 58 -173 157 -245
220 -620 550 -963 887 -1261 1240 -432 512 -733 1128 -824 1685 -54 334 -53
467 5 691 18 72 66 180 108 245 111 173 314 310 502 339 73 11 204 5 282 -14z"/>
<path d="M13484 3621 c-51 -13 -89 -41 -121 -90 -45 -66 -51 -130 -22 -221 36
-116 122 -251 145 -228 7 7 -26 78 -81 176 -53 95 -46 178 21 231 37 29 94 28
122 -2 18 -19 22 -35 22 -85 0 -34 4 -62 9 -62 5 0 28 9 52 20 24 11 54 20 66
20 16 0 25 8 29 25 13 54 -27 172 -68 198 -28 19 -131 29 -174 18z m210 -184
c9 -15 7 -21 -9 -33 -11 -8 -26 -13 -35 -12 -19 4 -25 35 -9 54 15 19 38 15
53 -9z"/>
<path d="M13467 3410 c-22 -31 -21 -50 1 -97 11 -21 32 -66 48 -100 16 -34 32
-62 37 -62 4 -1 7 17 7 39 0 28 -9 52 -30 82 -21 30 -32 61 -38 103 l-7 60
-18 -25z"/>
<path d="M13647 3283 c-4 -3 -7 -37 -7 -75 l0 -70 33 7 c17 4 38 14 45 23 17
21 10 101 -9 113 -17 10 -53 12 -62 2z"/>
<path d="M12890 3033 c-63 -5 -109 -35 -89 -59 6 -8 9 -24 5 -37 -4 -18 2 -30
22 -50 34 -32 64 -40 165 -41 65 -1 82 -4 91 -19 9 -15 7 -21 -13 -36 -30 -23
-20 -29 52 -30 65 0 77 -5 77 -30 0 -27 -21 -41 -63 -41 -31 0 -48 -8 -79 -36
-47 -42 -122 -79 -194 -95 -44 -10 -55 -9 -74 4 -17 12 -28 13 -52 5 -21 -7
-37 -7 -53 0 -13 6 -40 8 -60 5 -31 -5 -37 -3 -42 16 -5 20 -10 22 -43 16 -31
-5 -42 -2 -58 15 -17 18 -27 21 -66 15 -56 -9 -99 13 -94 48 5 33 -22 32 -75
-4 -34 -22 -47 -37 -47 -55 0 -32 31 -48 56 -29 36 27 69 19 259 -67 50 -22
109 -49 132 -59 46 -21 69 -49 79 -96 5 -25 12 -32 37 -37 18 -4 48 -17 67
-30 20 -13 50 -27 67 -30 29 -7 33 -4 58 42 29 53 63 75 139 87 22 4 60 17 85
29 65 33 157 63 218 71 73 10 110 38 157 120 39 68 40 72 41 167 0 53 -3 99
-7 103 -4 4 -24 3 -45 -2 -37 -9 -38 -10 -45 -63 -5 -42 -13 -60 -33 -77 -55
-48 -127 -21 -197 74 -91 120 -126 151 -217 183 -46 16 -89 29 -95 28 -6 -1
-36 -3 -66 -5z"/>
<path d="M12545 2968 c-46 -24 -61 -42 -69 -80 -3 -14 -19 -42 -36 -61 -16
-19 -30 -37 -30 -41 0 -15 20 -2 73 49 61 59 68 63 87 40 19 -22 -4 -68 -54
-110 -22 -19 -36 -35 -31 -35 6 0 33 20 62 45 49 43 85 56 98 35 3 -5 1 -19
-5 -30 -11 -20 -9 -21 24 -14 34 6 36 5 42 -25 4 -17 8 -31 11 -31 2 0 17 10
34 22 34 25 62 17 67 -20 3 -18 7 -20 28 -12 37 14 43 13 56 -15 13 -29 29
-31 63 -9 33 22 31 34 -5 34 -38 0 -158 45 -185 69 -11 10 -32 21 -47 25 -16
4 -34 18 -42 34 -8 15 -26 34 -40 42 -14 7 -26 21 -26 30 0 14 -28 81 -33 80
-1 -1 -20 -10 -42 -22z"/>
<path d="M12677 2223 c-17 -26 -46 -63 -63 -82 -52 -61 -96 -131 -92 -149 2
-9 17 -21 33 -26 17 -5 81 -29 144 -53 63 -24 119 -42 125 -39 12 4 -115 65
-179 86 -73 23 -83 50 -39 104 44 54 133 194 127 200 -13 13 -25 4 -56 -41z"/>
<path d="M12773 2183 c-17 -21 -33 -48 -37 -61 -4 -12 -19 -36 -33 -52 -13
-16 -23 -35 -21 -41 2 -6 30 -20 62 -31 44 -15 61 -17 69 -9 16 16 16 223 1
228 -7 2 -25 -13 -41 -34z"/>
<path d="M12906 2128 c-11 -141 -13 -238 -4 -238 4 0 8 12 8 28 0 15 3 84 7
155 6 135 -1 176 -11 55z"/>
</g>
</svg>
